<svg width="500" height="400" viewBox="0 0 500 400" fill="none" xmlns="http://www.w3.org/2000/svg">
  <rect width="500" height="400" rx="20" fill="#EBF5FF"/>
  <circle cx="250" cy="200" r="100" fill="#3B82F6" fill-opacity="0.2"/>
  <rect x="180" y="150" width="140" height="100" rx="10" fill="white" stroke="#3B82F6" stroke-width="2"/>
  <rect x="200" y="170" width="100" height="20" rx="4" fill="#EBF5FF"/>
  <rect x="200" y="200" width="100" height="10" rx="2" fill="#EBF5FF"/>
  <rect x="200" y="220" width="70" height="10" rx="2" fill="#EBF5FF"/>
  <path d="M290 240H210C208.895 240 208 240.895 208 242V244C208 245.105 208.895 246 210 246H290C291.105 246 292 245.105 292 244V242C292 240.895 291.105 240 290 240Z" fill="#3B82F6"/>
  <circle cx="120" cy="150" r="40" fill="#3B82F6" fill-opacity="0.3"/>
  <circle cx="380" cy="250" r="50" fill="#3B82F6" fill-opacity="0.3"/>
  <circle cx="90" cy="300" r="30" fill="#3B82F6" fill-opacity="0.3"/>
  <circle cx="400" cy="100" r="25" fill="#3B82F6" fill-opacity="0.3"/>
</svg> 