<svg width="422" height="422" viewBox="0 0 422 422" fill="none" xmlns="http://www.w3.org/2000/svg">
<path d="M325.292 395.625H96.7083C82.1405 395.625 70.3333 383.818 70.3333 369.25V52.75C70.3333 38.1822 82.1405 26.375 96.7083 26.375H263.75L351.667 114.292V369.25C351.667 383.818 339.859 395.625 325.292 395.625Z" fill="#43A047"/>
<path d="M351.667 114.292H263.75V26.375L351.667 114.292Z" fill="#C8E6C9"/>
<path d="M263.75 114.292L351.667 202.208V114.292H263.75Z" fill="#2E7D32"/>
<g filter="url(#filter0_di_1_2)">
<path d="M210.936 139C210.194 139.013 209.47 139.23 208.845 139.627C208.22 140.025 207.719 140.588 207.397 141.253L151.682 228.313C151.59 228.447 151.506 228.588 151.432 228.732C151.429 228.735 151.426 228.737 151.424 228.74C151.366 228.857 151.314 228.976 151.268 229.097C151.172 229.346 151.101 229.604 151.057 229.866C151.012 230.128 150.994 230.393 151.002 230.659C151.002 230.661 151.002 230.664 151.002 230.666C151.006 230.796 151.016 230.926 151.033 231.055C151.038 231.081 151.043 231.107 151.049 231.132C151.081 231.33 151.128 231.525 151.189 231.715C151.199 231.751 151.21 231.788 151.221 231.824C151.221 231.826 151.221 231.829 151.221 231.832C151.264 231.956 151.314 232.077 151.369 232.197C151.369 232.199 151.369 232.202 151.369 232.204C151.426 232.321 151.489 232.435 151.557 232.546C151.557 232.549 151.557 232.551 151.557 232.554C151.624 232.666 151.697 232.775 151.775 232.88C151.813 232.928 151.852 232.974 151.893 233.02C151.938 233.078 151.985 233.135 152.033 233.191C152.12 233.289 152.211 233.382 152.307 233.471C152.309 233.473 152.312 233.476 152.314 233.478C152.509 233.654 152.721 233.81 152.947 233.944C152.95 233.947 152.952 233.95 152.955 233.952C152.976 233.963 152.997 233.973 153.017 233.983C153.02 233.986 153.023 233.988 153.025 233.991L208.514 265.52C209.217 266.071 210.085 266.373 210.98 266.375C211.875 266.378 212.745 266.082 213.451 265.535L268.893 234.03C268.922 234.015 268.95 233.999 268.979 233.983C269.067 233.932 269.153 233.878 269.237 233.82C269.263 233.802 269.289 233.784 269.315 233.766C269.333 233.75 269.351 233.735 269.37 233.719C269.452 233.663 269.533 233.603 269.612 233.54C269.617 233.535 269.622 233.53 269.627 233.525C269.643 233.512 269.659 233.499 269.674 233.486C269.758 233.409 269.839 233.329 269.916 233.245C270.007 233.149 270.093 233.048 270.174 232.942C270.252 232.84 270.325 232.733 270.393 232.624C270.395 232.621 270.398 232.619 270.401 232.616C270.403 232.608 270.406 232.601 270.409 232.593C270.476 232.49 270.538 232.383 270.596 232.274C270.596 232.272 270.596 232.269 270.596 232.267C270.641 232.175 270.683 232.082 270.721 231.987C270.732 231.959 270.742 231.93 270.752 231.901C270.763 231.871 270.773 231.839 270.783 231.808C270.813 231.719 270.839 231.628 270.862 231.536C270.864 231.531 270.867 231.526 270.869 231.521C270.872 231.513 270.875 231.505 270.877 231.498C270.906 231.377 270.93 231.255 270.948 231.132C270.964 231.032 270.977 230.931 270.987 230.83C270.987 230.819 270.987 230.809 270.987 230.798C270.995 230.677 270.997 230.555 270.994 230.433C270.991 230.356 270.986 230.278 270.979 230.2C270.974 230.117 270.966 230.034 270.955 229.952C270.955 229.949 270.955 229.947 270.955 229.944C270.953 229.931 270.95 229.918 270.948 229.905C270.929 229.793 270.905 229.681 270.877 229.571C270.877 229.566 270.877 229.561 270.877 229.556C270.852 229.456 270.824 229.358 270.791 229.26C270.781 229.232 270.771 229.203 270.76 229.175C270.747 229.144 270.734 229.113 270.721 229.082C270.688 228.993 270.651 228.904 270.612 228.818C270.609 228.815 270.606 228.813 270.604 228.81C270.601 228.802 270.599 228.794 270.596 228.787C270.539 228.675 270.476 228.566 270.409 228.46C270.401 228.447 270.393 228.434 270.385 228.422C270.38 228.411 270.375 228.401 270.369 228.39L270.244 228.204L214.584 141.23C214.251 140.553 213.731 139.983 213.085 139.589C212.439 139.194 211.694 138.99 210.936 139ZM206.998 156.695V204.039L165.337 221.788L206.998 156.695ZM214.998 156.695L256.659 221.788L214.998 204.039V156.695ZM206.998 212.692V255.484L163.97 231.039L206.998 212.692ZM214.998 212.692L258.026 231.039L214.998 255.484V212.692ZM267.026 246.427C266.319 246.423 265.623 246.605 265.01 246.955L210.998 277.645L156.986 246.955C156.404 246.626 155.749 246.447 155.08 246.435C154.333 246.42 153.597 246.614 152.955 246.994C152.314 247.374 151.792 247.925 151.449 248.584C151.106 249.244 150.955 249.986 151.014 250.726C151.073 251.467 151.34 252.176 151.783 252.773L207.514 327.98C207.862 328.592 208.368 329.102 208.979 329.457C209.59 329.812 210.284 329.999 210.992 330C211.7 330.001 212.395 329.815 213.007 329.461C213.618 329.108 214.125 328.599 214.475 327.987L270.213 252.773C270.653 252.183 270.92 251.483 270.985 250.752C271.049 250.02 270.909 249.285 270.579 248.627C270.248 247.97 269.742 247.417 269.115 247.028C268.488 246.64 267.765 246.432 267.026 246.427ZM169.454 263.205L206.998 284.543V313.873L169.454 263.205ZM252.542 263.205L214.998 313.873V284.543L252.542 263.205Z" fill="#F4E3E3"/>
</g>
<defs>
<filter id="filter0_di_1_2" x="147" y="139" width="128" height="199" filterUnits="userSpaceOnUse" color-interpolation-filters="sRGB">
<feFlood flood-opacity="0" result="BackgroundImageFix"/>
<feColorMatrix in="SourceAlpha" type="matrix" values="0 0 0 0 0 0 0 0 0 0 0 0 0 0 0 0 0 0 127 0" result="hardAlpha"/>
<feOffset dy="4"/>
<feGaussianBlur stdDeviation="2"/>
<feComposite in2="hardAlpha" operator="out"/>
<feColorMatrix type="matrix" values="0 0 0 0 0 0 0 0 0 0 0 0 0 0 0 0 0 0 0.25 0"/>
<feBlend mode="normal" in2="BackgroundImageFix" result="effect1_dropShadow_1_2"/>
<feBlend mode="normal" in="SourceGraphic" in2="effect1_dropShadow_1_2" result="shape"/>
<feColorMatrix in="SourceAlpha" type="matrix" values="0 0 0 0 0 0 0 0 0 0 0 0 0 0 0 0 0 0 127 0" result="hardAlpha"/>
<feOffset dy="4"/>
<feGaussianBlur stdDeviation="5.05"/>
<feComposite in2="hardAlpha" operator="arithmetic" k2="-1" k3="1"/>
<feColorMatrix type="matrix" values="0 0 0 0 0 0 0 0 0 0 0 0 0 0 0 0 0 0 0.25 0"/>
<feBlend mode="normal" in2="shape" result="effect2_innerShadow_1_2"/>
</filter>
</defs>
</svg>